<?xml version="1.0" encoding="UTF-8" standalone="no"?>
<!-- Generator: Adobe Illustrator 12.0.1, SVG Export Plug-In . SVG Version: 6.00 Build 51448)  -->

<svg
   xmlns:dc="http://purl.org/dc/elements/1.1/"
   xmlns:cc="http://creativecommons.org/ns#"
   xmlns:rdf="http://www.w3.org/1999/02/22-rdf-syntax-ns#"
   xmlns:svg="http://www.w3.org/2000/svg"
   xmlns="http://www.w3.org/2000/svg"
   xmlns:xlink="http://www.w3.org/1999/xlink"
   xmlns:sodipodi="http://sodipodi.sourceforge.net/DTD/sodipodi-0.dtd"
   xmlns:inkscape="http://www.inkscape.org/namespaces/inkscape"
   version="1.1"
   id="Layer_1"
   width="379.955"
   height="380.251"
   viewBox="0 0 379.955 380.251"
   overflow="visible"
   enable-background="new 0 0 379.955 380.251"
   xml:space="preserve"
   sodipodi:version="0.32"
   inkscape:version="0.48.5 r10040"
   sodipodi:docname="FileZilla_uninstall.svg"
   inkscape:output_extension="org.inkscape.output.svg.inkscape"><metadata
     id="metadata2383"><rdf:RDF><cc:Work
         rdf:about=""><dc:format>image/svg+xml</dc:format><dc:type
           rdf:resource="http://purl.org/dc/dcmitype/StillImage" /><dc:title /></cc:Work></rdf:RDF></metadata><defs
     id="defs2381"><linearGradient
       id="linearGradient3802"><stop
         style="stop-color:#000000;stop-opacity:0.70588237;"
         offset="0"
         id="stop3804" /><stop
         style="stop-color:#bf0000;stop-opacity:0;"
         offset="1"
         id="stop3806" /></linearGradient><linearGradient
       id="linearGradient3777"><stop
         style="stop-color:#000000;stop-opacity:0.89166665;"
         offset="0"
         id="stop3779" /><stop
         style="stop-color:#000000;stop-opacity:0;"
         offset="1"
         id="stop3781" /></linearGradient><linearGradient
       y2="258.86539"
       x2="187.94679"
       y1="123.8594"
       x1="187.94679"
       gradientUnits="userSpaceOnUse"
       id="linearGradient3764"><stop
         id="stop3766"
         style="stop-color: rgb(191, 0, 0);"
         offset="0" /><stop
         id="stop3768"
         style="stop-color:#8f0000;stop-opacity:1"
         offset="1" /></linearGradient><color-profile
       name="sRGB-IEC61966-2.1"
       xlink:href="/System/Library/ColorSync/Profiles/sRGB Profile.icc"
       id="color-profile2988" /><inkscape:perspective
       sodipodi:type="inkscape:persp3d"
       inkscape:vp_x="0 : 190.1255 : 1"
       inkscape:vp_y="0 : 1000 : 0"
       inkscape:vp_z="379.95499 : 190.1255 : 1"
       inkscape:persp3d-origin="189.97749 : 126.75034 : 1"
       id="perspective12" /><linearGradient
       id="XMLID_2_"
       gradientUnits="userSpaceOnUse"
       x1="187.94679"
       y1="123.8594"
       x2="187.94679"
       y2="258.86539"><stop
         offset="0"
         style="stop-color: rgb(191, 0, 0);"
         id="stop2308" /><stop
         offset="1"
         style="stop-color: rgb(143, 0, 0);"
         id="stop2310" /></linearGradient><linearGradient
       inkscape:collect="always"
       xlink:href="#linearGradient3777"
       id="linearGradient3783"
       x1="110.51098"
       y1="110.807"
       x2="319.7981"
       y2="320.09409"
       gradientUnits="userSpaceOnUse"
       gradientTransform="translate(1.5126953e-5,-1.886666e-5)" /><linearGradient
       inkscape:collect="always"
       xlink:href="#linearGradient3777"
       id="linearGradient3006"
       gradientUnits="userSpaceOnUse"
       gradientTransform="translate(1.5991821e-5,-1.886666e-5)"
       x1="110.51098"
       y1="110.807"
       x2="319.7981"
       y2="320.09409" /><linearGradient
       inkscape:collect="always"
       xlink:href="#linearGradient3777"
       id="linearGradient3014"
       gradientUnits="userSpaceOnUse"
       gradientTransform="translate(-19.999985,-1.886666e-5)"
       x1="110.51098"
       y1="110.807"
       x2="319.7981"
       y2="320.09409" /><linearGradient
       inkscape:collect="always"
       xlink:href="#linearGradient3802"
       id="linearGradient3808"
       x1="82.969002"
       y1="83.265007"
       x2="379.95499"
       y2="380.25101"
       gradientUnits="userSpaceOnUse" /></defs><sodipodi:namedview
     inkscape:window-height="719"
     inkscape:window-width="1280"
     inkscape:pageshadow="2"
     inkscape:pageopacity="0.0"
     guidetolerance="10.0"
     gridtolerance="10.0"
     objecttolerance="10.0"
     borderopacity="1.0"
     bordercolor="#666666"
     pagecolor="#ffffff"
     id="base"
     inkscape:zoom="1.346479"
     inkscape:cx="65.207627"
     inkscape:cy="184.18409"
     inkscape:window-x="-2"
     inkscape:window-y="0"
     inkscape:current-layer="layer3"
     showgrid="false"
     inkscape:window-maximized="0"
     inkscape:snap-page="true"
     showguides="true"
     inkscape:guide-bbox="true"
     inkscape:snap-bbox="true"><sodipodi:guide
       orientation="-0.70710678,-0.70710678"
       position="379.95499,0"
       id="guide3785" /></sodipodi:namedview><path
     inkscape:connector-curvature="0"
     d="m -0.02289225,12.850203 0,16.775264 c 7.01474005,0 12.72265025,5.707722 12.72265025,12.720065 0,7.016692 -5.7079102,12.724413 -12.72265025,12.724413 l 0,16.775265 c 7.01474005,0 12.72265025,5.707721 12.72265025,12.720064 0,7.016692 -5.7079102,12.724416 -12.72265025,12.724416 l 0,16.77526 c 7.01474005,0 12.72265025,5.70772 12.72265025,12.72876 0,7.02105 -5.7079102,12.72877 -12.72265025,12.72877 l 0,16.77526 c 7.01474005,0 12.72265025,5.70337 12.72265025,12.72007 0,7.01669 -5.7079102,12.72441 -12.72265025,12.72441 l 0,16.77526 c 7.01474005,0 12.72265025,5.70338 12.72265025,12.72007 0,7.01669 -5.7079102,12.72441 -12.72265025,12.72441 l 0,16.77527 c 7.01474005,0 12.72265025,5.70337 12.72265025,12.72006 0,7.01669 -5.7079102,12.72441 -12.72265025,12.72441 l 0,16.77527 c 7.01474005,0 12.72265025,5.70337 12.72265025,12.72006 0,7.01669 -5.7079102,12.72442 -12.72265025,12.72442 l 0,16.77526 c 7.01474005,0 12.72265025,5.70337 12.72265025,12.72007 0,7.01669 -5.7079102,12.72441 -12.72265025,12.72441 l 0,16.78396 c 3.34864005,0 6.62769005,1.35463 8.99783005,3.7247 2.3657902,2.36571 3.7248202,5.64466 3.7248202,8.99536 l 16.7758,0 c 0,-7.01669 5.70791,-12.72006 12.72265,-12.72006 7.01474,0 12.72265,5.70337 12.72265,12.72006 l 16.7758,0 c 0,-7.01669 5.70791,-12.72006 12.72265,-12.72006 7.01475,0 12.72265,5.70337 12.72265,12.72006 l 16.775812,0 c 0,-7.01669 5.7079,-12.72006 12.72264,-12.72006 7.01475,0 12.72265,5.70337 12.72265,12.72006 l 16.77581,0 c 0,-7.01669 5.7079,-12.72006 12.72265,-12.72006 7.01474,0 12.72264,5.70337 12.72264,12.72006 l 16.77581,0 c 0,-7.01669 5.7079,-12.72006 12.72265,-12.72006 7.01474,0 12.72265,5.70337 12.72265,12.72006 l 16.7758,0 c 0,-7.01669 5.70791,-12.72006 12.72265,-12.72006 7.01474,0 12.72265,5.70337 12.72265,12.72006 l 16.7758,0 c 0,-7.01669 5.70791,-12.72006 12.72265,-12.72006 7.01474,0 12.72265,5.70337 12.72265,12.72006 l 16.77579,0 c 0,-7.01669 5.70791,-12.72006 12.72265,-12.72006 7.01474,0 12.72265,5.70337 12.72265,12.72006 l 16.7845,0 c 0,-3.3507 1.35903,-6.62965 3.72917,-8.99536 2.36579,-2.37007 5.64484,-3.7247 8.99566,-3.7247 l 0,-16.77526 c -7.01692,0 -12.72483,-5.70773 -12.72483,-12.72442 0,-7.01669 5.70791,-12.72006 12.72483,-12.72006 l 0,-16.77527 c -7.01692,0 -12.72483,-5.70772 -12.72483,-12.72441 0,-7.01669 5.70791,-12.72006 12.72483,-12.72006 l 0,-16.77527 c -7.01692,0 -12.72483,-5.70772 -12.72483,-12.72441 0,-7.01669 5.70791,-12.72007 12.72483,-12.72007 l 0,-16.77526 c -7.01692,0 -12.72483,-5.70772 -12.72483,-12.72441 0,-7.0167 5.70791,-12.72007 12.72483,-12.72007 l 0,-16.77526 c -7.01692,0 -12.72483,-5.70772 -12.72483,-12.72442 0,-7.01669 5.70791,-12.72006 12.72483,-12.72006 l 0,-16.77527 c -7.01692,0 -12.72483,-5.70772 -12.72483,-12.72876 0,-7.02104 5.70791,-12.72876 12.72483,-12.72876 l 0,-16.77527 c -7.01692,0 -12.72483,-5.707716 -12.72483,-12.724408 0,-7.012344 5.70791,-12.720065 12.72483,-12.720065 l 0,-16.775264 c -7.01692,0 -12.72483,-5.707722 -12.72483,-12.724414 0,-7.012343 5.70791,-12.720064 12.72483,-12.720064 l 0,-16.783962 c -3.35082,0 -6.62987,-1.358981 -8.99566,-3.7246957 -2.37014,-2.370063 -3.72917,-5.6490133 -3.72917,-8.99971755 l -16.7758,0 c 0,7.01669255 -5.70791,12.72441325 -12.72265,12.72441325 -7.01474,0 -12.72265,-5.7077207 -12.72265,-12.72441325 l -16.77579,0 c 0,7.01669255 -5.70791,12.72441325 -12.72265,12.72441325 -7.01475,0 -12.72265,-5.7077207 -12.72265,-12.72441325 l -16.77581,0 c 0,7.01669255 -5.7079,12.72441325 -12.72264,12.72441325 -7.01475,0 -12.72265,-5.7077207 -12.72265,-12.72441325 l -16.77581,0 c 0,7.01669255 -5.7079,12.72441325 -12.72265,12.72441325 -7.01474,0 -12.72264,-5.7077207 -12.72264,-12.72441325 l -16.77581,0 c 0,7.01669255 -5.7079,12.72441325 -12.72265,12.72441325 -7.01474,0 -12.72265,-5.7077207 -12.72265,-12.72441325 l -16.7758,0 c 0,7.01669255 -5.7079,12.72441325 -12.72265,12.72441325 -7.01474,0 -12.72265,-5.7077207 -12.72265,-12.72441325 l -16.775803,0 c 0,7.01669255 -5.70791,12.72441325 -12.72265,12.72441325 -7.01474,0 -12.72265,-5.7077207 -12.72265,-12.72441325 l -16.7758,0 c 0,7.01669255 -5.70791,12.72441325 -12.722649,12.72441325 -7.01475,0 -12.72265,-5.7077207 -12.72265,-12.72441325 l -16.7845,0 c 0,3.35070425 -1.35903,6.62965455 -3.7248202,8.99971755 -2.37014,2.3657147 -5.64919,3.7246957 -8.99783005,3.7246957 z"
     id="path2312"
     style="fill:#bf0000;fill-opacity:1" /><path
     inkscape:connector-curvature="0"
     d="m 323.71401,152.30039 -189.62204,0 9.89588,-46.29886 115.57148,0 10.60257,-49.832216 -166.11417,0 -52.308325,246.690976 50.188245,0 22.96861,-107.79657 120.37918,0 -104.60144,103.55437 18.37837,32.51336 c 8.48031,-5.65337 22.26409,-6.36221 31.80771,-6.36221 16.96715,0 33.5777,5.65771 50.89059,5.65771 15.87559,0 32.12735,-1.06109 58.63812,-13.78551 l 9.26312,-43.47 c -18.02828,7.41895 -44.70214,14.49 -67.90124,14.49 -9.53709,0 -18.37402,-2.12001 -27.5632,-3.53335 l 101.39631,-98.60333 8.13023,-33.22437 z"
     id="path2314"
     style="fill:#ffffff" /><path
     inkscape:connector-curvature="0"
     d="m 0,12.724404 0,16.775265 c 7.01474,0 12.72265,5.707722 12.72265,12.720064 0,7.016692 -5.70791,12.724418 -12.72265,12.724418 l 0,16.77526 c 7.01474,0 12.72265,5.70772 12.72265,12.72007 0,7.01669 -5.70791,12.72441 -12.72265,12.72441 l 0,16.775259 c 7.01474,0 12.72265,5.70772 12.72265,12.72876 0,7.02105 -5.70791,12.72877 -12.72265,12.72877 l 0,16.77527 c 7.01474,0 12.72265,5.70337 12.72265,12.72007 0,7.01669 -5.70791,12.72441 -12.72265,12.72441 l 0,16.77526 c 7.01474,0 12.72265,5.70338 12.72265,12.72007 0,7.01669 -5.70791,12.72441 -12.72265,12.72441 l 0,16.77527 c 7.01474,0 12.72265,5.70337 12.72265,12.72006 0,7.01669 -5.70791,12.72441 -12.72265,12.72441 l 0,16.77527 c 7.01474,0 12.72265,5.70337 12.72265,12.72006 0,7.01669 -5.70791,12.72442 -12.72265,12.72442 l 0,16.77526 c 7.01474,0 12.72265,5.70337 12.72265,12.72007 0,7.01669 -5.70791,12.72441 -12.72265,12.72441 l 0,16.78396 c 3.34864,0 6.62769,1.35463 8.99783,3.7247 2.36579,2.36571 3.72482,5.64466 3.72482,8.99536 l 16.7758,0 c 0,-7.01669 5.70791,-12.72006 12.72265,-12.72006 7.01474,0 12.72265,5.70337 12.72265,12.72006 l 16.7758,0 c 0,-7.01669 5.70791,-12.72006 12.72265,-12.72006 7.01475,0 12.72265,5.70337 12.72265,12.72006 l 16.77581,0 c 0,-7.01669 5.7079,-12.72006 12.72264,-12.72006 7.01475,0 12.72265,5.70337 12.72265,12.72006 l 16.77582,0 c 0,-7.01669 5.7079,-12.72006 12.72265,-12.72006 7.01474,0 12.72264,5.70337 12.72264,12.72006 l 16.77581,0 c 0,-7.01669 5.7079,-12.72006 12.72265,-12.72006 7.01474,0 12.72265,5.70337 12.72265,12.72006 l 16.7758,0 c 0,-7.01669 5.70791,-12.72006 12.72265,-12.72006 7.01474,0 12.72265,5.70337 12.72265,12.72006 l 16.7758,0 c 0,-7.01669 5.70791,-12.72006 12.72265,-12.72006 7.01474,0 12.72265,5.70337 12.72265,12.72006 l 16.77579,0 c 0,-7.01669 5.70791,-12.72006 12.72265,-12.72006 7.01474,0 12.72265,5.70337 12.72265,12.72006 l 16.7845,0 c 0,-3.3507 1.35903,-6.62965 3.72917,-8.99536 2.36579,-2.37007 5.64484,-3.7247 8.99566,-3.7247 l 0,-16.77526 c -7.01692,0 -12.72483,-5.70773 -12.72483,-12.72442 0,-7.01669 5.70791,-12.72006 12.72483,-12.72006 l 0,-16.77527 c -7.01692,0 -12.72483,-5.70772 -12.72483,-12.72441 0,-7.01669 5.70791,-12.72006 12.72483,-12.72006 l 0,-16.77527 c -7.01692,0 -12.72483,-5.70772 -12.72483,-12.72441 0,-7.01669 5.70791,-12.72007 12.72483,-12.72007 l 0,-16.77526 c -7.01692,0 -12.72483,-5.70772 -12.72483,-12.72441 0,-7.0167 5.70791,-12.72007 12.72483,-12.72007 l 0,-16.77526 c -7.01692,0 -12.72483,-5.70772 -12.72483,-12.72442 0,-7.01669 5.70791,-12.72006 12.72483,-12.72006 l 0,-16.77528 c -7.01692,0 -12.72483,-5.70772 -12.72483,-12.72876 0,-7.02104 5.70791,-12.72876 12.72483,-12.72876 l 0,-16.775269 c -7.01692,0 -12.72483,-5.70771 -12.72483,-12.72441 0,-7.01234 5.70791,-12.72006 12.72483,-12.72006 l 0,-16.77527 c -7.01692,0 -12.72483,-5.707719 -12.72483,-12.724411 0,-7.012342 5.70791,-12.720063 12.72483,-12.720063 l 0,-16.783963 c -3.35082,0 -6.62987,-1.358981 -8.99566,-3.7246963 -2.37014,-2.370063 -3.72917,-5.649013 -3.72917,-8.999717959137 l -16.7758,0 C 350.50016,7.0166827 344.79225,12.724404 337.77751,12.724404 c -7.01474,0 -12.72265,-5.7077213 -12.72265,-12.724414259137 l -16.77579,0 C 308.27907,7.0166827 302.57116,12.724404 295.55642,12.724404 c -7.01475,0 -12.72265,-5.7077213 -12.72265,-12.724414259137 l -16.77581,0 C 266.05796,7.0166827 260.35006,12.724404 253.33532,12.724404 c -7.01475,0 -12.72265,-5.7077213 -12.72265,-12.724414259137 l -16.77581,0 C 223.83686,7.0166827 218.12896,12.724404 211.11421,12.724404 c -7.01474,0 -12.72264,-5.7077213 -12.72264,-12.724414259137 l -16.77581,0 C 181.61576,7.0166827 175.90786,12.724404 168.89311,12.724404 c -7.01474,0 -12.72265,-5.7077213 -12.72265,-12.724414259137 l -16.77581,0 C 139.39465,7.0166827 133.68675,12.724404 126.672,12.724404 c -7.01474,0 -12.72265,-5.7077213 -12.72265,-12.724414259137 l -16.7758,0 C 97.17355,7.0166827 91.46564,12.724404 84.4509,12.724404 c -7.01474,0 -12.72265,-5.7077213 -12.72265,-12.724414259137 l -16.7758,0 C 54.95245,7.0166827 49.24454,12.724404 42.2298,12.724404 c -7.01475,0 -12.72265,-5.7077213 -12.72265,-12.724414259137 l -16.7845,0 C 12.72265,3.3506947 11.36362,6.6296447 8.99783,8.9997077 6.62769,11.365423 3.34864,12.724404 0,12.724404 z"
     id="path2312-7"
     style="fill:url(#linearGradient3808);fill-opacity:1" /><g
     inkscape:groupmode="layer"
     id="layer3"
     inkscape:label="shading"><g
       transform="matrix(2.014571,0,0,1.7604738,-204.93817,1.6962211)"
       style="font-size:144.61103821px;font-style:normal;font-variant:normal;font-weight:normal;font-stretch:normal;text-align:start;line-height:125%;letter-spacing:0px;word-spacing:0px;writing-mode:lr-tb;text-anchor:start;fill:#ff0000;fill-opacity:1;stroke:none;font-family:OCR A Std;-inkscape-font-specification:OCR A Std"
       id="text3787"><path
         d="m 4.8200877,65.566708 c -1.5907198,2.024552 -3.3260539,3.9045 -3.3260539,6.507496 0,3.904494 3.0368357,7.230552 6.9413298,7.230552 4.1937164,0 6.9413324,-4.193723 9.3997174,-7.230552 L 35.477628,50.382549 53.120174,72.074204 c 2.458386,3.036829 5.206002,7.230552 9.399718,7.230552 3.904494,0 6.94133,-3.326058 6.94133,-7.230552 0,-2.602996 -1.735334,-4.482944 -3.326054,-6.507496 L 44.877345,40.404387 66.135168,15.242066 c 1.59072,-2.024552 3.326054,-3.9045 3.326054,-6.5074965 0,-3.9044941 -3.036836,-7.3751629 -6.94133,-7.3751629 -4.193716,0 -6.941332,4.3383342 -9.399718,7.3751629 L 35.477628,30.426225 17.835081,8.7345695 C 15.376696,5.6977408 12.62908,1.3594066 8.4353636,1.3594066 c -3.9044941,0 -6.9413298,3.4706688 -6.9413298,7.3751629 0,2.6029965 1.7353341,4.4829445 3.3260539,6.5074965 L 26.07791,40.404387 4.8200877,65.566708"
         style="line-height:125%;fill:#ff0000;fill-opacity:1;font-family:OCR A Std;-inkscape-font-specification:OCR A Std"
         id="path3792"
         inkscape:connector-curvature="0" /></g><g
       id="g3778"
       transform="matrix(0.95957059,-0.95957059,0.95957059,0.95957059,-280.29241,84.597244)"><path
         inkscape:connector-curvature="0"
         id="path3006"
         d="m 189.9775,140.73743 0,98.77614"
         style="fill:none;stroke:#ff0000;stroke-width:30.00000191;stroke-linecap:round;stroke-linejoin:miter;stroke-miterlimit:4;stroke-opacity:1;stroke-dasharray:none" /><path
         style="fill:none;stroke:#ff0000;stroke-width:30.00000191;stroke-linecap:round;stroke-linejoin:miter;stroke-miterlimit:4;stroke-opacity:1;stroke-dasharray:none"
         d="m 239.36557,190.1255 -98.77614,0"
         id="path3008"
         inkscape:connector-curvature="0" /></g></g></svg>